<svg width="24" height="24" viewBox="0 0 24 24" fill="none" xmlns="http://www.w3.org/2000/svg">
<path d="M7.58908 0.811401C6.05627 0.811401 4.6008 1.19671 3.41908 1.94531C2.06815 2.80078 1.08236 4.15218 0.801114 5.89218C0.520333 7.62656 0.93377 9.72656 2.26596 12.1266C3.19596 13.7953 4.34018 15.1172 5.06252 16.5094C5.64377 17.7141 5.92502 18.6984 5.79377 20.0344C5.10471 20.1703 4.58768 20.7703 4.58768 21.4969C4.58768 22.3172 5.25471 22.9875 6.07502 22.9875C6.90002 22.9875 7.56564 22.3172 7.56564 21.4969C7.56564 20.8781 7.19065 20.3531 6.65627 20.1234C6.70315 19.6453 6.70315 19.1953 6.66096 18.7594C7.09221 18.2531 7.59377 17.9953 8.21721 17.9109C8.90627 17.8125 9.75002 17.9437 10.7156 18.2906C10.9547 18.7453 11.1703 19.2281 11.3578 19.7484C10.9266 20.0016 10.6406 20.4703 10.6406 21.0047C10.6406 21.8062 11.2922 22.4578 12.0938 22.4578C12.9 22.4578 13.5516 21.8062 13.5516 21.0047C13.5516 20.2406 12.9656 19.6125 12.2156 19.5516C12.0281 19.0078 11.8078 18.5016 11.5641 18.0234C12.0422 17.5594 12.8531 17.2406 13.7953 17.0578C14.8266 16.8562 15.9844 16.8047 16.9547 16.7766C17.2828 17.0766 17.6063 17.3953 17.9203 17.7281C17.8969 17.8312 17.8828 17.9437 17.8828 18.0562C17.8828 18.825 18.5063 19.4437 19.2703 19.4437C20.0391 19.4437 20.6578 18.825 20.6578 18.0562C20.6578 17.2922 20.0391 16.6687 19.2703 16.6687C18.9469 16.6687 18.6469 16.7812 18.4125 16.9687C18.1078 16.6547 17.7985 16.3594 17.4844 16.0734C17.4375 13.7719 18.1078 11.9672 19.2563 10.4859C19.6735 10.3828 20.1 10.2328 20.5406 10.0312C20.8125 10.2984 21.1828 10.4625 21.5906 10.4625C22.411 10.4625 23.0766 9.79687 23.0766 8.97187C23.0766 8.15156 22.411 7.48593 21.5906 7.48593C20.7703 7.48593 20.1 8.15156 20.1 8.97187C20.1 9.07031 20.1094 9.16875 20.1281 9.2625C19.7625 9.42656 19.4156 9.54843 19.0781 9.6375C18.3516 8.70468 18.286 7.97343 18.4875 7.1625C18.7031 6.3 19.2985 5.35312 19.8891 4.26093C20.1844 4.0725 20.4516 3.84468 20.6719 3.57562C20.9297 3.77062 21.2485 3.88593 21.5953 3.88593C22.4344 3.88593 23.1188 3.20484 23.1188 2.3639C23.1188 1.52343 22.4344 0.842339 21.5953 0.842339C20.7563 0.842339 20.0719 1.52343 20.0719 2.3639C20.0719 2.52328 20.1 2.67703 20.1422 2.82093C19.6172 3.60984 18.6094 4.05046 17.386 4.07203C16.1391 4.09406 14.7094 3.67078 13.5094 2.79468C11.6344 1.6739 9.47346 0.836245 7.58908 0.811401ZM9.78283 1.98328C10.6547 2.20734 11.5219 2.56734 12.3469 3.07171L12.3516 3.76312C11.5219 3.14296 10.6125 2.48578 9.80627 2.06859L9.78283 1.98328ZM6.88596 2.13421L7.10158 2.8739C6.57658 2.63015 6.02814 2.43562 5.4469 2.30718C5.94846 2.20406 6.41721 2.11828 6.88596 2.13421ZM7.83283 2.26171C8.2594 2.35875 8.69533 2.51765 9.06096 2.685L9.52033 4.41656C9.08908 4.07578 8.64846 3.75421 8.18439 3.46593L7.83283 2.26171ZM4.88908 3.09515C5.75627 3.23718 6.55314 3.5489 7.30783 3.97265L6.80158 4.84687C6.14533 4.22203 5.47971 3.59296 4.88908 3.09515ZM10.1156 3.25171C10.6219 3.56343 11.1188 3.92062 11.611 4.29609C11.8594 4.48921 12.1078 4.68703 12.3563 4.88437L12.3703 6.95156C11.8219 6.45468 11.2641 5.925 10.6875 5.40937L10.1156 3.25171ZM13.2281 3.66656C13.8188 4.0664 14.4563 4.37343 15.0985 4.58625L15.1313 5.91093C14.5219 5.50312 13.8891 4.99218 13.2328 4.46343L13.2281 3.66656ZM4.21455 3.675C4.94533 4.28578 5.64846 4.95468 6.34221 5.64843L5.69065 6.76874C5.05315 5.70937 4.53143 4.64437 4.21455 3.675ZM8.05314 4.43531C8.69533 4.87031 9.30939 5.37187 9.91408 5.90625C9.82033 6.19218 9.34221 6.93281 9.15939 7.22343C8.58752 6.65156 8.02033 6.06562 7.44377 5.48906L8.05314 4.43531ZM18.586 4.80468C18.2016 5.48906 17.8453 6.15937 17.6531 6.87656C17.1281 6.88593 16.5844 6.72656 16.0172 6.44062L15.9797 4.81875C16.875 4.98281 17.761 4.99687 18.586 4.80468ZM2.51205 5.17968C2.52611 6.20156 2.68643 7.11562 2.95315 7.94062L2.19143 7.78125C2.20783 6.82031 2.32361 5.92968 2.51205 5.17968ZM4.02986 5.58749C4.33268 6.225 4.67533 6.81562 5.04846 7.35468L4.4133 7.62656C4.19111 6.90937 4.04861 6.20624 4.02986 5.58749ZM13.2375 5.59218C13.9078 6.10312 14.4938 6.57656 15.1547 6.96093L15.2016 9.10312C14.5406 8.74687 13.8938 8.26875 13.2516 7.725L13.2375 5.59218ZM6.97971 6.29531C7.53752 6.8625 8.09533 7.44375 8.66721 8.01093L7.89846 9.24843C7.30783 8.72812 6.7594 8.16562 6.25783 7.5375L6.97971 6.29531ZM10.6219 6.53906C11.2313 7.0875 11.7938 7.62187 12.3281 8.09062L11.5266 9.43124C10.9313 8.93437 10.3594 8.40468 9.80158 7.85625L10.6219 6.53906ZM16.0406 7.41562C16.5235 7.61718 17.0203 7.73906 17.5266 7.75312C17.5172 8.41406 17.6953 9.09843 18.1313 9.79687C17.386 9.825 16.725 9.73593 16.0875 9.50625L16.0406 7.41562ZM5.58752 8.07656C6.05158 8.6625 6.55314 9.19218 7.08752 9.68437L6.02346 10.0594C5.52189 9.50625 5.09533 8.99062 4.78127 8.41875L5.58752 8.07656ZM9.30939 8.63906C9.87189 9.18281 10.4485 9.7125 11.0578 10.2094L10.4766 11.1797C9.82033 10.7391 9.12189 10.2422 8.57815 9.81093L9.30939 8.63906ZM13.0078 8.6625C13.6641 9.19218 14.3438 9.66562 15.0703 10.0219L14.3063 11.3578C13.5656 10.9547 12.8719 10.4906 12.2156 9.98437C12.4781 9.54375 12.7453 9.10312 13.0078 8.6625ZM2.29549 8.7L3.33096 8.91562C3.5808 9.46406 3.87752 9.975 4.20846 10.4578L2.91799 10.3687C2.63486 9.86718 2.4169 9.31875 2.29549 8.7ZM7.85158 10.3453C8.38596 10.7859 8.94377 11.1937 9.51565 11.5828L8.37658 11.9672C7.80939 11.5781 7.22814 11.1469 6.74533 10.7344L7.85158 10.3453ZM15.8813 10.3641C16.5844 10.6031 17.4047 10.7016 18.0656 10.6734C17.7094 11.2406 17.4047 11.85 17.175 12.5062C16.4344 12.3094 15.7406 12.0562 15.0891 11.7562C15.3516 11.2922 15.6188 10.8281 15.8813 10.3641ZM11.7516 10.7578C12.4172 11.2594 13.1156 11.7234 13.8656 12.1312L13.3594 13.0172C12.6328 12.5531 11.911 12.1078 11.2125 11.6578C11.3906 11.3578 11.5735 11.0578 11.7516 10.7578ZM5.79846 11.0672C6.30471 11.5641 6.87658 11.9156 7.34533 12.3141L7.03127 12.4172C6.59533 11.9719 6.11721 11.4609 5.79846 11.0672ZM3.53908 11.2875C3.99236 11.3156 4.44471 11.3578 4.89846 11.3812C5.25471 11.7984 5.62971 12.2203 5.95315 12.5625C5.61096 12.5953 5.13752 12.6047 4.75315 12.6187C4.31861 12.1641 3.86955 11.7094 3.53908 11.2875ZM10.4344 12.2016C11.1422 12.6562 11.8594 13.1016 12.5766 13.5609L11.4516 14.0672C10.7438 13.5375 9.94221 13.0031 9.29533 12.5812L10.4344 12.2016ZM14.6485 12.525C15.3563 12.8531 16.111 13.1297 16.9172 13.3453C16.7625 13.9734 16.6641 14.6344 16.6313 15.3375C15.8016 14.6578 14.9485 14.0578 14.0953 13.4953C14.2781 13.1719 14.4656 12.8484 14.6485 12.525ZM8.24533 12.9328C9.04689 13.4766 9.83908 13.9781 10.5328 14.4797L9.45939 14.9625C8.89221 14.3062 8.2969 13.7016 7.71564 13.1109L8.24533 12.9328ZM6.78283 13.4203C7.32658 13.9687 7.87033 14.5125 8.39533 15.0891H7.23283C6.73127 14.4984 6.18283 13.9734 5.64377 13.4625C6.02346 13.4578 6.40314 13.4203 6.78283 13.4203ZM4.39877 13.5094C4.95002 14.0391 5.50783 14.55 6.02815 15.0891H5.25002C4.91252 14.5594 4.55064 14.0391 4.18783 13.5141C4.25814 13.5141 4.32893 13.5094 4.39877 13.5094ZM13.4578 14.1281C14.311 14.6906 15.1547 15.2812 15.975 15.9375C15.0469 15.9984 14.2125 16.0828 13.411 16.2422C13.125 15.6656 12.7031 15.1594 12.1969 14.6953C12.6141 14.5031 13.036 14.3156 13.4578 14.1281ZM11.3156 15.0891C11.8453 15.5344 12.2672 15.9937 12.5438 16.4812C12.0141 16.6594 11.5266 16.9031 11.1328 17.2406C10.7953 16.6734 10.425 16.1531 10.0406 15.6609L11.3156 15.0891ZM5.76565 15.9656H6.80627C7.10158 16.3359 7.37346 16.725 7.60314 17.1469C7.19533 17.2687 6.81565 17.4609 6.47346 17.7328C6.28127 17.0766 6.05158 16.4953 5.76565 15.9656ZM7.90783 15.9656H9.15471C9.47346 16.3547 9.77814 16.7578 10.0641 17.1844C9.52033 17.0531 9.00471 16.9875 8.51252 17.0062C8.32033 16.6359 8.10939 16.2609 7.90783 15.9656Z" fill="#092D4B"/>
</svg>
