<svg width="24" height="24" viewBox="0 0 24 24" fill="none" xmlns="http://www.w3.org/2000/svg">
<path d="M14.546 4.95501C14.621 5.26501 14.641 5.59401 14.595 5.93101L13.773 11.975M14.546 4.95501C13.914 2.34801 10.086 2.34801 9.454 4.95501M14.546 4.95501C16.113 3.34701 18.926 4.94801 19 6.95901M9.454 4.95501C9.379 5.26501 9.36 5.59401 9.405 5.93101L10.227 11.975M9.454 4.95501C7.887 3.34701 5.074 4.94801 5 6.96001C4.932 8.80001 6.19 11.27 7.302 12.979M19 6.95901C20 7.12701 22 8.06401 22 10.471C22 12.644 19.393 14.94 16.817 16.765C16.235 17.177 15.944 17.383 15.757 17.533C15.2337 17.9411 14.7693 18.4197 14.377 18.955C14.233 19.145 14.084 19.37 13.786 19.818L13.554 20.168C13.3837 20.4242 13.1527 20.6343 12.8816 20.7796C12.6105 20.925 12.3076 21.001 12 21.001C11.6924 21.001 11.3895 20.925 11.1184 20.7796C10.8473 20.6343 10.6163 20.4242 10.446 20.168L10.214 19.818C10.0253 19.525 9.82854 19.2372 9.624 18.955C9.23112 18.4195 8.76605 17.941 8.242 17.533C8.056 17.383 7.765 17.177 7.183 16.765C4.607 14.94 2 12.645 2 10.47C2 8.06301 4 7.12601 5 6.95801M19 6.95901C19.068 8.79901 17.81 11.268 16.698 12.977" stroke="#737373" stroke-width="1.5" stroke-linecap="round" stroke-linejoin="round"/>
<path d="M18 16L17.241 19.794C17.1731 20.1339 16.9895 20.4398 16.7215 20.6597C16.4535 20.8795 16.1176 20.9998 15.771 21H8.23C7.88319 21 7.54709 20.8799 7.27889 20.66C7.01069 20.4401 6.82697 20.1341 6.759 19.794L6 16" stroke="#737373" stroke-width="1.5" stroke-linecap="round" stroke-linejoin="round"/>
</svg>
