<svg width="24" height="24" viewBox="0 0 24 24" fill="none" xmlns="http://www.w3.org/2000/svg">
<path d="M12.75 10.875C12.75 10.6525 12.816 10.435 12.9396 10.25C13.0632 10.065 13.2389 9.92078 13.4445 9.83564C13.65 9.75049 13.8762 9.72821 14.0945 9.77162C14.3127 9.81502 14.5132 9.92217 14.6705 10.0795C14.8278 10.2368 14.935 10.4373 14.9784 10.6555C15.0218 10.8738 14.9995 11.1 14.9144 11.3055C14.8292 11.5111 14.685 11.6868 14.5 11.8104C14.315 11.934 14.0975 12 13.875 12C13.5766 12 13.2905 11.8815 13.0795 11.6705C12.8685 11.4595 12.75 11.1734 12.75 10.875ZM20.9813 8.00437C20.8514 9.90086 20.0071 11.6775 18.6186 12.9758C17.2302 14.2742 15.4009 14.9976 13.5 15H10.5C10.2016 15 9.91548 15.1185 9.7045 15.3295C9.49353 15.5405 9.375 15.8266 9.375 16.125C9.375 16.4234 9.49353 16.7095 9.7045 16.9205C9.91548 17.1315 10.2016 17.25 10.5 17.25H15.75C15.9489 17.25 16.1397 17.329 16.2803 17.4697C16.421 17.6103 16.5 17.8011 16.5 18C16.5 18.1989 16.421 18.3897 16.2803 18.5303C16.1397 18.671 15.9489 18.75 15.75 18.75H11.25V20.25H14.25C14.4489 20.25 14.6397 20.329 14.7803 20.4697C14.921 20.6103 15 20.8011 15 21C15 21.1989 14.921 21.3897 14.7803 21.5303C14.6397 21.671 14.4489 21.75 14.25 21.75H9C7.01088 21.75 5.10322 20.9598 3.6967 19.5533C2.29018 18.1468 1.5 16.2391 1.5 14.25C1.5 12.2609 2.29018 10.3532 3.6967 8.9467C5.10322 7.54018 7.01088 6.75 9 6.75H19.875C20.1734 6.75 20.4595 6.63147 20.6705 6.4205C20.8815 6.20952 21 5.92337 21 5.625C21 5.32663 20.8815 5.04048 20.6705 4.8295C20.4595 4.61853 20.1734 4.5 19.875 4.5H12C11.4033 4.5 10.831 4.26295 10.409 3.84099C9.98705 3.41903 9.75 2.84674 9.75 2.25C9.75 2.05109 9.82902 1.86032 9.96967 1.71967C10.1103 1.57902 10.3011 1.5 10.5 1.5C10.6989 1.5 10.8897 1.57902 11.0303 1.71967C11.171 1.86032 11.25 2.05109 11.25 2.25C11.25 2.44891 11.329 2.63968 11.4697 2.78033C11.6103 2.92098 11.8011 3 12 3H19.875C20.4723 3.00056 21.0516 3.20482 21.5172 3.57907C21.9827 3.95331 22.3067 4.47515 22.4357 5.0584C22.5646 5.64166 22.4908 6.25144 22.2263 6.78706C21.9619 7.32268 21.5227 7.75209 20.9813 8.00437ZM4.7625 18.4959L7.87687 16.2712V16.125C7.87634 15.8881 7.90787 15.6522 7.97062 15.4237L3.09375 13.2066C2.92415 14.1577 2.98772 15.1359 3.27901 16.0571C3.5703 16.9783 4.08063 17.8152 4.76625 18.4959H4.7625ZM8.41875 17.7272L6.01125 19.4494C6.91969 19.9746 7.95066 20.2508 9 20.25H9.75V18.6403C9.22308 18.4819 8.75891 18.1626 8.4225 17.7272H8.41875ZM9.75 13.6097V8.25H9C7.84921 8.25129 6.72302 8.58314 5.7554 9.20605C4.78778 9.82897 4.01947 10.7167 3.54187 11.7638L8.77969 14.1441C9.06143 13.8989 9.39223 13.7168 9.75 13.6097ZM19.4531 8.25H11.25V13.5H13.5C14.9609 13.4982 16.3712 12.9643 17.4669 11.998C18.5626 11.0317 19.2687 9.69925 19.4531 8.25Z" fill="#092D4B"/>
</svg>
